<?xml version="1.0" encoding="utf-8"?>
<!-- Generator: Adobe Illustrator 16.0.0, SVG Export Plug-In . SVG Version: 6.00 Build 0)  -->
<!DOCTYPE svg PUBLIC "-//W3C//DTD SVG 1.1//EN" "http://www.w3.org/Graphics/SVG/1.1/DTD/svg11.dtd">
<svg version="1.1" id="Layer_1" xmlns="http://www.w3.org/2000/svg" xmlns:xlink="http://www.w3.org/1999/xlink" x="0px" y="0px"
	 width="44px" height="44px" viewBox="0 0 44 44" enable-background="new 0 0 44 44" xml:space="preserve">
<circle fill="none" stroke="#000000" stroke-miterlimit="10" cx="22" cy="22" r="20.5"/>
<path fill="none" stroke="#000000" stroke-linecap="round" stroke-linejoin="round" stroke-miterlimit="10" d="M33.077,32.013
	c0.229,2.08-4.064,3.864-9.592,3.983c-5.527,0.119-10.194-1.468-10.423-3.548c-0.23-2.078,4.063-3.861,9.592-3.982
	C28.181,28.347,32.847,29.935,33.077,32.013z"/>
<line fill="none" stroke="#000000" stroke-linecap="round" stroke-linejoin="round" stroke-miterlimit="10" x1="12.643" y1="10.371" x2="13.058" y2="31.992"/>
<line fill="none" stroke="#000000" stroke-linecap="round" stroke-linejoin="round" stroke-miterlimit="10" x1="18.094" y1="9.143" x2="32.798" y2="31.378"/>
<path d="M12.119,10.332c0.072-1.918,1.686-3.474,3.604-3.474c1.919,0,3.417,1.556,3.345,3.474c-0.072,1.918-1.686,3.474-3.605,3.474
	C13.544,13.806,12.046,12.25,12.119,10.332z"/>
</svg>
