<?xml version="1.0" encoding="utf-8"?>
<!-- Generator: Adobe Illustrator 16.0.0, SVG Export Plug-In . SVG Version: 6.00 Build 0)  -->
<!DOCTYPE svg PUBLIC "-//W3C//DTD SVG 1.1//EN" "http://www.w3.org/Graphics/SVG/1.1/DTD/svg11.dtd">
<svg version="1.1" id="Layer_1" xmlns="http://www.w3.org/2000/svg" xmlns:xlink="http://www.w3.org/1999/xlink" x="0px" y="0px"
	 width="44px" height="44px" viewBox="0 0 44 44" enable-background="new 0 0 44 44" xml:space="preserve">
<g>
	<g>
		<path d="M21.15,17.32c0,0.944-0.86,1.955-1.977,1.955v15.945c0,2.263-3.085,2.263-3.085,0V19.275c-1.086,0-2.033-0.836-2.033-2.09
			V8.411c0-0.764,1.105-0.793,1.105,0.029v6.488h0.923V8.38c0-0.702,1.063-0.747,1.063,0.031v6.517h0.955V8.39
			c0-0.735,1.032-0.764,1.032,0.027v6.511h0.939V8.39c0-0.727,1.077-0.756,1.077,0.027V17.32z"/>
	</g>
	<g>
		<path d="M29.38,10.451v24.762c0,2.213-3.092,2.181-3.092,0v-9.825h-1.645V10.451C24.644,6.973,29.38,6.973,29.38,10.451z"/>
	</g>
</g>
<circle fill="none" stroke="#000000" stroke-miterlimit="10" cx="22" cy="22" r="20.5"/>
</svg>
