<?xml version="1.0" encoding="utf-8"?>
<!-- Generator: Adobe Illustrator 16.0.0, SVG Export Plug-In . SVG Version: 6.00 Build 0)  -->
<!DOCTYPE svg PUBLIC "-//W3C//DTD SVG 1.1//EN" "http://www.w3.org/Graphics/SVG/1.1/DTD/svg11.dtd">
<svg version="1.1" id="Layer_1" xmlns="http://www.w3.org/2000/svg" xmlns:xlink="http://www.w3.org/1999/xlink" x="0px" y="0px"
	 width="44px" height="44px" viewBox="0 0 44 44" enable-background="new 0 0 44 44" xml:space="preserve">
<path d="M20.28,25.023c-1.097,0-6.151,0-7.248,0c-3.071,0-3.358,2.736-3.358,3.181c0,0.441,0,6.464,0,6.464h14.02
	c0,0,0-6.084,0-6.525C23.694,26.545,22.565,25.023,20.28,25.023z"/>
<circle cx="16.91" cy="19.786" r="4.02"/>
<polygon stroke="#000000" stroke-miterlimit="10" points="13.715,9.55 13.715,14.424 14.779,14.424 14.779,10.573 33.385,10.573 
	33.385,22.247 22.369,22.247 22.369,23.464 34.489,23.464 34.489,9.55 "/>
<circle fill="none" stroke="#000000" stroke-miterlimit="10" cx="22" cy="22" r="20.5"/>
</svg>
