<?xml version="1.0" encoding="utf-8"?>
<!-- Generator: Adobe Illustrator 16.0.0, SVG Export Plug-In . SVG Version: 6.00 Build 0)  -->
<!DOCTYPE svg PUBLIC "-//W3C//DTD SVG 1.1//EN" "http://www.w3.org/Graphics/SVG/1.1/DTD/svg11.dtd">
<svg version="1.1" id="Layer_1" xmlns="http://www.w3.org/2000/svg" xmlns:xlink="http://www.w3.org/1999/xlink" x="0px" y="0px"
	 width="44px" height="44px" viewBox="0 0 44 44" enable-background="new 0 0 44 44" xml:space="preserve">
<circle fill="none" stroke="#000000" stroke-miterlimit="10" cx="22" cy="22" r="20.5"/>
<path d="M23.335,23.116l-2.519-2.52l9.318-9.318c-0.616-0.619-1.95-1.896-3.774-2.379c-1.223-0.324-2.886-0.336-4.091,0.686
	c-1.718,1.453-1.152,2.915-2.821,4.299c-2.396,1.992-4.753,0.424-8.18,3.262c-2.696,2.231-3.508,7.8,1.321,12.92
	c4.094,4.341,10.085,6.249,13.773,2.262c3.02-3.269,1.36-5.797,3.353-8.193c1.386-1.668,2.788-1.331,4.31-2.966
	c1.266-1.36,1.168-2.842,0.786-4.097c-0.401-1.31-1.234-2.351-2.137-3.295L23.335,23.116z"/>
<circle cx="23.122" cy="20.658" r="3.469"/>
<rect x="17.608" y="21.613" transform="matrix(0.7075 -0.7067 0.7067 0.7075 -12.6029 20.489)" width="1.689" height="7.716"/>
</svg>
