<?xml version="1.0" encoding="utf-8"?>
<!-- Generator: Adobe Illustrator 16.0.0, SVG Export Plug-In . SVG Version: 6.00 Build 0)  -->
<!DOCTYPE svg PUBLIC "-//W3C//DTD SVG 1.1//EN" "http://www.w3.org/Graphics/SVG/1.1/DTD/svg11.dtd">
<svg version="1.1" id="Layer_1" xmlns="http://www.w3.org/2000/svg" xmlns:xlink="http://www.w3.org/1999/xlink" x="0px" y="0px"
	 width="44px" height="44px" viewBox="0 0 44 44" enable-background="new 0 0 44 44" xml:space="preserve">
<path d="M19.02,25.324c-1.307,0-3.257,0-4.564,0c-3.662,0-4.004,3.262-4.004,3.791c0,0.528,0,6.069,0,6.069H23.09
	c0,0,0-5.616,0-6.142C23.09,27.139,21.744,25.324,19.02,25.324z"/>
<circle cx="16.759" cy="19.768" r="4.02"/>
<path fill="none" stroke="#000000" stroke-width="1.4742" stroke-miterlimit="10" d="M33.562,35.2c0,0,0-6.085,0-6.526
	c0-1.597-1.128-3.119-3.413-3.119c-1.098,0-4.146,0-5.241,0"/>
<circle cx="27.774" cy="19.768" r="4.02"/>
<circle cx="16.759" cy="10.309" r="4.02"/>
<circle cx="27.774" cy="10.309" r="4.02"/>
<circle fill="none" stroke="#000000" stroke-miterlimit="10" cx="22" cy="22" r="20.5"/>
</svg>
